# xmcd
#
# Track frame offsets: 
#        150
#        20030
#        36067
#        49022
#        68165
#        81435
#        93155
#        116072
#        127617
#        148937
#        164792
#        178052
#        197740
#        216425
#        237355
#        255735
#        273375
#        291107
#        306970
#        323410
#        341445
#
# Disc length: 4744 seconds
#
# Revision: 2
# Processed by: cddbd v1.5.2PL0 Copyright (c) Steve Scherf et al.
# Submitted via: ExactAudioCopy v0.99pb4
#
DISCID=3d128615
DTITLE=Various Artist - The Soul Of Gospel
DYEAR=1995
DGENRE=Soul;Gospel
TTITLE0=The Staple Singers - I'll Take You There
TTITLE1=Aretha Franklin - You're All I Need To Get By
TTITLE2=Fontella Bass - Rescue Me
TTITLE3=Bill Withers - Lean On Me
TTITLE4=Jackie Wilson - (Your Love Keeps Lifting Me) Higher And Higher
TTITLE5=The Impressions - People Get Ready
TTITLE6=Edwin Hawkins Singers - Oh! Happy Day
TTITLE7=Erma Franklin - (Take A Little) Piece Of My Heart
TTITLE8=Al Green - Let's Stay Together
TTITLE9=Aretha Franklin - I Say A Little Prayer
TTITLE10=Ben E. King - Stand By Me
TTITLE11=James Ingram (With Michael Mcdonald) - Yah Mo B There
TTITLE12=The Sounds Of Blackness - I'm Going All The Way (7" Radio Mix
TTITLE12=)
TTITLE13=Arthur Baker And The Backbeat Disciples Feat. Al Green - The 
TTITLE13=Message Is Love
TTITLE14=The Winans - Let My People Go
TTITLE15=George Michael and Aretha Franklin - I Knew You Were Waiting (F
TTITLE15=or Me)
TTITLE16=The Chimes - I Still Haven't Found What I'm Looking For
TTITLE17=New Jersey Gospel Choir - Anytime You Need A Friend
TTITLE18=South Carolina Baptist Choir - Up Where We Belong
TTITLE19=The Staple Singers - If You're Ready (Come Go With Me)
TTITLE20=Marvin Gaye - Mercy Mercy Me
EXTD=
EXTT0=
EXTT1=
EXTT2=
EXTT3=
EXTT4=
EXTT5=
EXTT6=
EXTT7=
EXTT8=
EXTT9=
EXTT10=
EXTT11=
EXTT12=
EXTT13=
EXTT14=
EXTT15=
EXTT16=
EXTT17=
EXTT18=
EXTT19=
EXTT20=
PLAYORDER=
